<svg fill="none" height="24" viewBox="0 0 24 24" width="24" xmlns="http://www.w3.org/2000/svg"><g stroke="#141b34" stroke-linecap="round" stroke-width="1.5"><path d="m14 2h-4c-3.27923 0-4.91884 0-6.08109.81382-.43.30108-.80401.67509-1.10509 1.10509-.81382 1.16225-.81382 2.80186-.81382 6.08109 0 3.2792 0 4.9188.81382 6.0811.30108.43.67509.804 1.10509 1.1051 1.16225.8138 2.80186.8138 6.08109.8138h4c3.2792 0 4.9188 0 6.0811-.8138.43-.3011.804-.6751 1.1051-1.1051.8138-1.1623.8138-2.8019.8138-6.0811 0-3.27923 0-4.91884-.8138-6.08109-.3011-.43-.6751-.80401-1.1051-1.10509-1.1623-.81382-2.8019-.81382-6.0811-.81382z"/><g stroke-linejoin="round"><path d="m16 8 1.2265 1.05719c.5157.44444.7735.66667.7735.94281 0 .2761-.2578.4984-.7735.9428l-1.2265 1.0572"/><path d="m8 8-1.22654 1.05719c-.51564.44444-.77346.66667-.77346.94281 0 .2761.25782.4984.77346.9428l1.22654 1.0572"/><path d="m13 7-2 6"/></g><path d="m14.6557 22-.4188-.4189c-.9443-.9442-1.1784-2.3867-.5812-3.5811"/><path d="m9.00051 22 .41886-.4189c.94423-.9442 1.17833-2.3867.58113-3.5811"/><path d="m7 22h10"/></g></svg>