<svg fill="none" height="64" viewBox="0 0 64 64" width="64" xmlns="http://www.w3.org/2000/svg"><path d="m59 11v-2c0-2.209-1.791-4-4-4h-46c-2.209 0-4 1.791-4 4v36.171m0 9.829c0 2.209 1.791 4 4 4h46c2.209 0 4-1.791 4-4v-34.171m-8 38.171v-28zm-8 0v-18zm-8 0v-26zm-8 0v-26zm-8 0v-18zm-8 0v-5zm23.125-32.883 5.758 5.758zm10 5.758 11.758-11.758zm-35.531 14.531 20.82-20.82zm52.406-28.406c0-1.657-1.344-3-3-3s-3 1.343-3 3 1.344 3 3 3 3-1.343 3-3zm-52 30c0-1.657-1.344-3-3-3s-3 1.343-3 3 1.344 3 3 3 3-1.343 3-3zm36-14c0-1.657-1.344-3-3-3s-3 1.343-3 3 1.344 3 3 3 3-1.343 3-3zm-13-7c-1.656 0-3-1.343-3-3s1.344-3 3-3 3 1.343 3 3-1.344 3-3 3z" stroke="#12131a" stroke-linecap="round" stroke-linejoin="round" stroke-width="2"/></svg>